<svg xmlns="http://www.w3.org/2000/svg" width="100" height="100" viewBox="0 0 100 100" ><defs></defs>
    <path d="M45 53 L33 92 L47 80 Z" fill="#f1a3c6" stroke="#d873a4" stroke-width="2.5"/>
    <path d="M55 53 L67 92 L53 80 Z" fill="#f1a3c6" stroke="#d873a4" stroke-width="2.5"/>
    <path d="M50 50 C 22 28, 6 36, 6 50 C 6 64, 22 72, 50 50 Z" fill="#f1a3c6" stroke="#d873a4" stroke-width="2.5"/>
    <path d="M50 50 C 78 28, 94 36, 94 50 C 94 64, 78 72, 50 50 Z" fill="#f1a3c6" stroke="#d873a4" stroke-width="2.5"/><rect x="41" y="40" width="18" height="22" rx="7" fill="#f1a3c6" stroke="#d873a4" stroke-width="2.5"/><circle cx="20" cy="46" r="2.4" fill="#fff" opacity="0.9"/><circle cx="30" cy="56" r="2.4" fill="#fff" opacity="0.9"/><circle cx="80" cy="46" r="2.4" fill="#fff" opacity="0.9"/><circle cx="70" cy="56" r="2.4" fill="#fff" opacity="0.9"/><circle cx="40" cy="76" r="2.4" fill="#fff" opacity="0.9"/><circle cx="60" cy="76" r="2.4" fill="#fff" opacity="0.9"/><ellipse cx="24" cy="44" rx="6" ry="3" fill="#fff" opacity="0.25"/></svg>