<svg xmlns="http://www.w3.org/2000/svg" width="100" height="100" viewBox="0 0 100 100" >
    <defs><linearGradient id="cg" x1="0" y1="0" x2="0" y2="1"><stop offset="0" stop-color="#7fbf45"/><stop offset="1" stop-color="#4f8f2a"/></linearGradient></defs>
    <path d="M50 50 L52 86" stroke="#4f8f2a" stroke-width="3" fill="none"/>
    <path transform="rotate(0 50 50)" d="M50 50 C 40 30 30 30 30 42 C 30 52 42 54 50 50 Z" fill="url(#cg)" stroke="#3f7d22" stroke-width="1.5"/><path transform="rotate(120 50 50)" d="M50 50 C 40 30 30 30 30 42 C 30 52 42 54 50 50 Z" fill="url(#cg)" stroke="#3f7d22" stroke-width="1.5"/><path transform="rotate(240 50 50)" d="M50 50 C 40 30 30 30 30 42 C 30 52 42 54 50 50 Z" fill="url(#cg)" stroke="#3f7d22" stroke-width="1.5"/>
    <circle cx="50" cy="50" r="4" fill="#3f7d22"/></svg>