<svg xmlns="http://www.w3.org/2000/svg" width="100" height="100" viewBox="0 0 100 100" ><circle cx="50" cy="50" r="44" fill="#f4e7d4" stroke="#7d1a1a" stroke-width="3"/>
   <path d="M50.0 46.0 L51.1 45.6 L52.3 45.5 L53.7 45.8 L55.0 46.5 L56.2 47.6 L57.1 49.1 L57.7 50.9 L57.7 52.8 L57.3 54.9 L56.3 56.9 L54.7 58.6 L52.6 60.0 L50.2 60.9 L47.5 61.1 L44.7 60.7 L41.9 59.5 L39.5 57.6 L37.5 55.1 L36.1 52.1 L35.5 48.7 L35.7 45.1 L36.9 41.5 L38.9 38.2 L41.7 35.5 L45.3 33.4 L49.3 32.2 L53.7 32.1 L58.1 33.0 L62.2 35.0 L65.9 38.0 L68.7 41.9 L70.7 46.5 L71.4 51.6 L70.9 56.8 L69.2 61.9 L66.2 66.5 L62.0 70.3 L57.0 73.1 L51.4 74.6 L45.4 74.7 L39.4 73.4 L33.8 70.6 L28.9 66.5 L25.1 61.3 L22.7 55.1 L21.7 48.4 L22.4 41.6 L24.7 35.0 L28.6 29.0 L34.0 24.1 L40.4 20.5 L47.7 18.6 L55.3 18.4 L62.9 20.1 L70.0 23.6 L76.1 28.7 L80.9 35.3 L84.0 43.0 L85.2 51.3 L84.4 59.8 L81.5 68.0 L76.7 75.3 L70.2 81.4 L62.4 85.8 L53.5 88.2 L44.3 88.5 L35.1 86.5 L26.5 82.4 " fill="none" stroke="#9e2222" stroke-width="10" stroke-linecap="round"/>
   <path d="M50.0 46.0 L51.1 45.6 L52.3 45.5 L53.7 45.8 L55.0 46.5 L56.2 47.6 L57.1 49.1 L57.7 50.9 L57.7 52.8 L57.3 54.9 L56.3 56.9 L54.7 58.6 L52.6 60.0 L50.2 60.9 L47.5 61.1 L44.7 60.7 L41.9 59.5 L39.5 57.6 L37.5 55.1 L36.1 52.1 L35.5 48.7 L35.7 45.1 L36.9 41.5 L38.9 38.2 L41.7 35.5 L45.3 33.4 L49.3 32.2 L53.7 32.1 L58.1 33.0 L62.2 35.0 L65.9 38.0 L68.7 41.9 L70.7 46.5 L71.4 51.6 L70.9 56.8 L69.2 61.9 L66.2 66.5 L62.0 70.3 L57.0 73.1 L51.4 74.6 L45.4 74.7 L39.4 73.4 L33.8 70.6 L28.9 66.5 L25.1 61.3 L22.7 55.1 L21.7 48.4 L22.4 41.6 L24.7 35.0 L28.6 29.0 L34.0 24.1 L40.4 20.5 L47.7 18.6 L55.3 18.4 L62.9 20.1 L70.0 23.6 L76.1 28.7 L80.9 35.3 L84.0 43.0 L85.2 51.3 L84.4 59.8 L81.5 68.0 L76.7 75.3 L70.2 81.4 L62.4 85.8 L53.5 88.2 L44.3 88.5 L35.1 86.5 L26.5 82.4 " fill="none" stroke="#c23a3a" stroke-width="3" stroke-linecap="round" opacity="0.5"/>
   <circle cx="36" cy="34" r="7" fill="#fff" opacity="0.35"/></svg>